<svg id="Layer_1" enable-background="new 0 0 512 512" height="512" viewBox="0 0 512 512" width="512" xmlns="http://www.w3.org/2000/svg"><g id="github"><path d="m254.5 16.5c-131.996 0-239 107.004-239 239s107.004 239 239 239 239-107.004 239-239-107.004-239-239-239zm158.392 397.392c-42.308 42.308-98.559 65.608-158.392 65.608s-116.084-23.3-158.392-65.608-65.608-98.559-65.608-158.392 23.3-116.084 65.608-158.392 98.559-65.608 158.392-65.608 116.084 23.3 158.392 65.608 65.608 98.559 65.608 158.392-23.3 116.084-65.608 158.392z"/><path d="m254 118.205c-75.969 0-137.563 61.594-137.563 137.563 0 60.788 39.412 112.341 94.079 130.527 6.877 1.26 9.387-2.989 9.387-6.616 0-3.275-.126-14.122-.193-25.608-38.253 8.312-46.339-16.221-46.339-16.221-6.263-15.886-15.273-20.117-15.273-20.117-12.502-8.53.948-8.363.948-8.363 13.812.957 21.083 14.173 21.083 14.173 12.275 21.024 32.208 14.945 40.033 11.419 1.25-8.866 4.81-14.945 8.732-18.371-30.537-3.476-62.66-15.281-62.66-67.992 0-15.029 5.365-27.287 14.147-36.918-1.402-3.493-6.138-17.489 1.36-36.422 0 0 11.536-3.694 37.833 14.106 10.965-3.065 22.728-4.576 34.424-4.626 11.687.051 23.459 1.578 34.441 4.643 26.247-17.817 37.8-14.106 37.8-14.106 7.523 18.95 2.788 32.93 1.377 36.406 8.816 9.63 14.139 21.889 14.139 36.918 0 52.846-32.174 64.483-62.82 67.892 4.954 4.265 9.337 12.628 9.337 25.457 0 18.388-.185 33.215-.185 37.749 0 3.661 2.502 7.943 9.471 6.599 54.626-18.22 94.004-69.772 94.004-130.527.001-75.971-61.593-137.565-137.562-137.565z"/></g></svg>